<svg xmlns="http://www.w3.org/2000/svg" width="800" height="800" viewBox="0 0 800 800" version="1.1"><path d="M 480.500 49.971 C 476.650 50.404, 469.675 51.531, 465 52.473 C 460.325 53.416, 450.560 56.161, 443.301 58.573 C 436.041 60.985, 425.527 64.971, 419.937 67.432 L 409.774 71.905 399.652 66.825 C 394.085 64.032, 384.297 60.028, 377.902 57.927 C 371.506 55.827, 361.150 53.353, 354.887 52.430 C 346.649 51.214, 340.182 50.910, 331.500 51.330 C 324.607 51.664, 316.211 52.765, 311.771 53.918 C 307.521 55.023, 301.671 56.915, 298.771 58.124 C 295.872 59.332, 290.015 62.359, 285.755 64.849 C 281.495 67.338, 274.773 72.329, 270.817 75.938 C 266.861 79.547, 260.993 86.048, 257.776 90.385 C 254.559 94.722, 250.157 101.980, 247.993 106.514 C 245.830 111.047, 242.973 118.086, 241.644 122.155 C 240.316 126.224, 238.503 133.783, 237.615 138.953 C 236.630 144.686, 236 154.065, 236 163 C 236 171.909, 236.632 181.341, 237.612 187.074 C 238.499 192.258, 240.318 200.325, 241.654 205 C 242.990 209.675, 246.270 218, 248.943 223.500 C 251.616 229, 256.771 237.477, 260.399 242.337 C 264.027 247.198, 270.259 254.798, 274.248 259.226 C 278.236 263.654, 293.650 278.551, 308.500 292.330 C 323.350 306.109, 341.046 323.034, 347.824 329.941 C 354.602 336.849, 364.063 347, 368.848 352.500 C 373.633 358, 379.516 364.892, 381.922 367.816 C 385.896 372.646, 386.153 373.275, 384.727 374.701 C 383.302 376.127, 381.073 374.145, 360.369 353.042 C 347.834 340.266, 331.261 324.094, 323.540 317.104 C 315.818 310.114, 305.675 301.221, 301 297.341 C 296.325 293.462, 287.914 286.892, 282.309 282.741 C 276.705 278.591, 268.103 272.710, 263.194 269.674 C 258.286 266.638, 249.596 261.808, 243.885 258.942 C 238.173 256.075, 229.548 252.204, 224.717 250.338 C 219.887 248.472, 211.337 245.854, 205.717 244.520 C 200.098 243.186, 191.130 241.624, 185.789 241.047 C 180.449 240.471, 172.539 240, 168.213 240 C 163.887 240, 155.432 240.480, 149.424 241.066 C 143.416 241.653, 134.225 242.990, 129 244.037 C 123.775 245.085, 115.225 247.355, 110 249.081 C 104.775 250.807, 96.537 254.177, 91.694 256.570 C 86.851 258.963, 79.664 263.064, 75.722 265.685 C 71.781 268.305, 64.931 274.060, 60.499 278.474 C 56.068 282.888, 50.748 289.081, 48.678 292.235 C 46.607 295.389, 43.631 300.564, 42.064 303.735 C 40.497 306.906, 38.264 312.592, 37.103 316.371 C 35.941 320.150, 34.492 327.463, 33.884 332.621 C 33.068 339.540, 33.076 344.558, 33.914 351.750 C 34.540 357.113, 36.200 365.743, 37.605 370.928 C 39.010 376.113, 42.091 384.745, 44.453 390.111 C 46.814 395.476, 50.153 402.153, 51.873 404.948 C 53.593 407.743, 55 410.374, 55 410.795 C 55 411.216, 53.444 415.251, 51.542 419.760 C 49.640 424.270, 46.493 432.984, 44.548 439.125 C 42.604 445.266, 39.833 455.737, 38.391 462.395 C 36.206 472.483, 35.765 477.082, 35.745 490 C 35.724 502.731, 36.102 506.929, 37.859 513.500 C 39.036 517.900, 41.585 524.734, 43.523 528.687 C 45.461 532.641, 49.045 538.328, 51.487 541.325 C 53.929 544.323, 58.756 548.920, 62.214 551.540 C 65.671 554.160, 72.100 557.990, 76.500 560.052 C 80.900 562.113, 88.325 564.735, 93 565.878 C 97.675 567.022, 106.410 568.412, 112.411 568.968 C 119.753 569.649, 127.114 569.650, 134.911 568.972 C 141.285 568.418, 149.990 567.307, 154.255 566.502 C 158.520 565.698, 165.495 564.145, 169.755 563.052 C 174.015 561.959, 181.325 559.754, 186 558.152 C 190.675 556.551, 199.225 553.354, 205 551.049 C 210.775 548.743, 223.600 542.871, 233.500 538.001 C 243.400 533.130, 257.800 525.449, 265.500 520.931 C 273.200 516.414, 285.575 508.659, 293 503.698 C 300.425 498.737, 310.550 491.641, 315.500 487.929 C 320.450 484.217, 329 477.442, 334.500 472.874 C 340 468.306, 350.383 458.928, 357.573 452.034 L 370.647 439.500 357.073 453.031 C 349.608 460.473, 332.250 476.200, 318.500 487.980 C 304.750 499.760, 287.489 515.271, 280.143 522.449 C 272.797 529.627, 263.885 539.100, 260.339 543.500 C 256.793 547.900, 251.803 554.650, 249.250 558.500 C 246.696 562.350, 242.684 569.338, 240.334 574.029 C 237.984 578.720, 234.481 587.382, 232.550 593.278 C 230.619 599.174, 228.137 608.422, 227.035 613.830 C 225.933 619.237, 224.560 629.082, 223.985 635.707 C 223.261 644.048, 223.258 651.131, 223.975 658.738 C 224.545 664.781, 225.919 673.274, 227.028 677.612 C 228.138 681.951, 231.110 689.745, 233.634 694.933 C 237.403 702.680, 239.678 705.821, 246.373 712.516 C 252.768 718.911, 256.354 721.567, 263.012 724.840 C 267.681 727.134, 274.901 729.869, 279.058 730.916 C 283.214 731.963, 290.653 733.136, 295.589 733.522 C 300.815 733.931, 309.143 733.739, 315.531 733.063 C 321.564 732.425, 331.598 730.769, 337.828 729.384 C 344.059 727.998, 354.859 724.928, 361.828 722.561 C 368.798 720.194, 375.700 717.695, 377.167 717.006 C 379.576 715.876, 380.400 716.095, 385.667 719.268 C 388.875 721.201, 395.550 724.793, 400.500 727.249 C 405.450 729.706, 413.100 732.894, 417.500 734.334 C 421.900 735.773, 428.425 737.645, 432 738.492 C 435.575 739.340, 443.675 740.299, 450 740.623 C 459.276 741.099, 463.339 740.831, 471.010 739.235 C 476.241 738.148, 483.990 735.813, 488.230 734.048 C 492.471 732.283, 498.541 729.156, 501.720 727.100 C 504.899 725.045, 510.322 720.749, 513.772 717.553 C 517.221 714.358, 522.750 708.153, 526.057 703.764 C 529.364 699.375, 534.284 691.220, 536.989 685.642 C 539.695 680.064, 543.097 671.916, 544.551 667.536 C 546.004 663.155, 548.085 655.280, 549.174 650.036 C 550.626 643.042, 551.279 635.034, 551.625 620 C 551.956 605.613, 551.693 596.891, 550.746 590.750 C 550.003 585.938, 549.531 582, 549.696 582 C 549.862 582, 555.767 587.063, 562.819 593.250 C 569.871 599.438, 581.459 609.275, 588.571 615.111 C 595.682 620.947, 607.810 630.636, 615.523 636.641 C 623.236 642.647, 635.386 651.800, 642.523 656.981 C 649.660 662.162, 662.475 671.080, 671 676.799 C 679.525 682.517, 693.590 691.432, 702.257 696.609 C 710.923 701.786, 724.648 709.616, 732.757 714.008 C 740.865 718.401, 748.092 721.996, 748.815 721.997 C 749.538 721.999, 751.630 718.737, 753.464 714.750 C 755.297 710.762, 758.221 703.450, 759.962 698.500 C 761.703 693.550, 763.801 686.350, 764.624 682.500 C 765.448 678.650, 766.171 671.675, 766.230 667 C 766.289 662.325, 766.001 657.038, 765.589 655.250 C 764.997 652.677, 764.333 652, 762.404 652 C 761.063 652, 754.686 650.867, 748.233 649.481 C 741.780 648.096, 732 645.579, 726.500 643.888 C 721 642.198, 711.720 638.863, 705.877 636.479 C 700.035 634.094, 689.850 629.434, 683.244 626.122 C 676.638 622.811, 667.243 617.754, 662.367 614.884 C 657.490 612.015, 648.775 606.514, 643 602.661 C 637.225 598.808, 628 592.272, 622.500 588.137 C 617 584.002, 608.225 577.168, 603 572.951 C 597.775 568.733, 587.763 560.239, 580.750 554.076 C 573.737 547.913, 568 542.665, 568 542.415 C 568 542.164, 570.362 543.340, 573.250 545.027 C 576.138 546.713, 581.040 549.405, 584.145 551.008 C 587.250 552.611, 593.775 555.579, 598.645 557.604 C 603.515 559.628, 611.939 562.569, 617.365 564.138 C 622.791 565.708, 632.691 567.951, 639.365 569.122 C 647.744 570.593, 655.834 571.265, 665.500 571.292 C 674.636 571.317, 682.492 570.750, 688.112 569.659 C 692.849 568.740, 699.185 567.141, 702.192 566.106 C 705.200 565.071, 710.549 562.830, 714.080 561.126 C 717.611 559.423, 723.213 555.832, 726.529 553.147 C 729.845 550.463, 734.536 545.648, 736.952 542.447 C 739.368 539.247, 742.590 534.125, 744.112 531.064 C 745.633 528.004, 747.856 522.125, 749.052 518 C 750.691 512.343, 751.350 506.766, 751.733 495.308 C 752.121 483.679, 751.837 477.698, 750.520 469.808 C 749.574 464.139, 747.729 455.225, 746.419 450 C 745.110 444.775, 741.961 434.764, 739.422 427.754 L 734.805 415.008 739.348 407.254 C 741.847 402.989, 745.452 396.071, 747.361 391.881 C 749.269 387.690, 751.941 380.715, 753.299 376.381 C 754.657 372.046, 756.333 365.290, 757.023 361.366 C 757.806 356.922, 758.094 349.569, 757.789 341.866 C 757.380 331.517, 756.809 328.082, 754.288 320.806 C 752.632 316.024, 749.130 308.668, 746.507 304.459 C 743.883 300.250, 738.641 293.710, 734.856 289.925 C 731.072 286.141, 724.718 280.847, 720.738 278.161 C 716.757 275.474, 710.197 271.613, 706.160 269.581 C 702.123 267.548, 694.248 264.361, 688.660 262.499 C 683.072 260.637, 673.842 258.170, 668.148 257.017 C 662.454 255.864, 652.779 254.438, 646.648 253.847 C 640.428 253.248, 628.932 253.044, 620.644 253.385 C 612.473 253.721, 601.074 254.695, 595.313 255.551 C 589.552 256.406, 580.557 258.192, 575.324 259.520 C 570.091 260.847, 560.842 263.951, 554.769 266.418 C 548.697 268.885, 538.727 273.697, 532.614 277.113 C 526.501 280.528, 516.998 286.335, 511.496 290.018 C 505.995 293.701, 496.995 300.218, 491.496 304.500 C 485.998 308.782, 477 316.155, 471.500 320.884 C 466 325.612, 453.400 337.354, 443.500 346.976 C 433.600 356.599, 426.645 363.128, 428.045 361.486 C 429.445 359.844, 434.159 354.450, 438.521 349.500 C 442.883 344.550, 461.560 325.200, 480.026 306.500 C 498.491 287.800, 518.013 267.325, 523.409 261 C 528.805 254.675, 536.520 244.550, 540.554 238.500 C 544.587 232.450, 549.949 223.352, 552.468 218.282 C 554.987 213.212, 558.813 203.762, 560.970 197.282 C 563.127 190.802, 565.796 181, 566.900 175.500 C 568.004 170, 569.403 159.683, 570.007 152.574 C 570.612 145.465, 570.826 136.015, 570.484 131.574 C 570.141 127.133, 569.217 119.868, 568.432 115.429 C 567.646 110.990, 565.908 104.140, 564.570 100.206 C 563.232 96.273, 560.432 89.780, 558.347 85.777 C 555.686 80.668, 552.016 75.957, 546.028 69.964 C 539.552 63.483, 535.681 60.537, 529.942 57.723 C 525.785 55.684, 519.035 53.165, 514.942 52.124 C 510.849 51.083, 503 49.995, 497.500 49.707 C 492 49.418, 484.350 49.537, 480.500 49.971 M 326.500 62.092 C 322.100 63.163, 315.575 64.990, 312 66.153 C 308.425 67.316, 301.900 70.048, 297.500 72.224 C 293.100 74.401, 286.789 78.116, 283.475 80.481 C 280.161 82.846, 274.464 87.945, 270.815 91.813 C 267.166 95.681, 262.341 101.944, 260.091 105.730 C 257.841 109.517, 254.682 116.230, 253.069 120.648 C 251.457 125.066, 249.465 132.240, 248.642 136.590 C 247.820 140.941, 246.835 148.787, 246.453 154.026 C 246.048 159.579, 246.255 168.754, 246.948 176.026 C 247.602 182.887, 249.192 193.450, 250.482 199.500 C 251.771 205.550, 253.982 213.875, 255.394 218 C 256.976 222.621, 257.794 224.157, 257.523 222 C 257.282 220.075, 256.540 207.925, 255.874 195 C 254.963 177.313, 254.941 168.618, 255.785 159.850 C 256.402 153.443, 257.862 144.443, 259.031 139.850 C 260.199 135.258, 262.863 127.847, 264.951 123.381 C 267.039 118.916, 270.602 112.532, 272.868 109.194 C 275.135 105.856, 279.530 100.381, 282.635 97.027 C 285.740 93.673, 292.380 87.874, 297.391 84.139 C 302.401 80.405, 309.200 75.734, 312.500 73.760 C 315.800 71.786, 323.185 67.883, 328.911 65.086 C 334.945 62.138, 338.309 60.030, 336.911 60.072 C 335.585 60.112, 330.900 61.021, 326.500 62.092 M 155.333 248.667 C 155.700 249.033, 156.300 249.033, 156.667 248.667 C 157.033 248.300, 156.733 248, 156 248 C 155.267 248, 154.967 248.300, 155.333 248.667 M 145 249.727 C 143.075 249.950, 136.346 251.240, 130.048 252.593 C 123.749 253.946, 113.871 256.634, 108.096 258.566 C 102.322 260.498, 93.183 264.388, 87.788 267.209 C 82.392 270.031, 75.084 274.727, 71.547 277.644 C 68.010 280.561, 62.765 285.773, 59.892 289.224 C 57.019 292.676, 52.955 299.100, 50.860 303.500 C 48.766 307.900, 46.321 314.200, 45.427 317.500 C 44.529 320.817, 43.575 329.314, 43.292 336.500 C 42.917 346.043, 43.220 352.026, 44.431 359 C 45.338 364.225, 47.829 373.735, 49.967 380.133 C 52.104 386.531, 55.266 394.564, 56.992 397.984 C 58.718 401.404, 60.319 404.015, 60.548 403.785 C 60.778 403.555, 60.520 401.822, 59.976 399.934 C 59.431 398.045, 58.222 392.450, 57.289 387.500 C 56.089 381.133, 55.585 373.088, 55.565 360 C 55.541 343.806, 55.828 340.378, 57.869 332.500 C 59.151 327.550, 61.898 319.847, 63.974 315.381 C 66.049 310.916, 69.641 304.474, 71.956 301.065 C 74.270 297.657, 79.451 291.581, 83.468 287.564 C 87.486 283.547, 95.231 277.292, 100.680 273.664 C 106.128 270.037, 115.067 264.940, 120.543 262.339 C 126.019 259.737, 135.900 255.696, 142.500 253.358 C 149.335 250.937, 153.209 249.153, 151.500 249.213 C 149.850 249.272, 146.925 249.503, 145 249.727 M 608 261.648 C 602.775 262.476, 592.636 264.655, 585.468 266.492 C 578.301 268.328, 566.601 271.939, 559.468 274.516 C 552.336 277.094, 541.100 281.821, 534.500 285.021 C 527.900 288.222, 517.960 293.546, 512.411 296.853 C 506.862 300.161, 497.637 306.345, 491.911 310.597 C 486.185 314.848, 475.650 324.148, 468.500 331.264 C 461.350 338.380, 456.055 343.909, 456.733 343.552 C 457.411 343.195, 462.981 339.331, 469.109 334.966 C 475.238 330.601, 486.300 323.397, 493.693 318.957 C 501.085 314.517, 513.291 307.808, 520.817 304.047 C 528.343 300.286, 539 295.303, 544.500 292.974 C 550 290.644, 558.759 287.195, 563.964 285.310 C 569.169 283.424, 580.194 279.922, 588.464 277.528 C 596.734 275.134, 609.575 271.952, 617 270.456 C 624.425 268.961, 635.675 266.984, 642 266.064 L 653.500 264.391 650 262.462 C 647.054 260.838, 644.205 260.502, 632 260.338 C 623.007 260.218, 613.892 260.715, 608 261.648 M 388.961 414.564 C 387.629 416.719, 384.329 421.411, 381.628 424.991 C 378.927 428.571, 375.543 432.879, 374.109 434.564 C 372.674 436.249, 373.673 435.349, 376.328 432.564 C 378.984 429.779, 383.630 424.226, 386.653 420.225 C 389.676 416.224, 391.977 412.431, 391.766 411.798 C 391.555 411.164, 390.292 412.409, 388.961 414.564 M 303.400 518.575 C 298.944 521.091, 291.486 526.012, 286.825 529.510 C 282.164 533.008, 274.559 539.860, 269.925 544.736 C 265.291 549.612, 259.188 556.954, 256.363 561.051 C 253.537 565.148, 249.379 572.162, 247.123 576.637 C 244.867 581.112, 241.477 589.436, 239.590 595.136 C 237.703 600.836, 235.477 609.775, 234.642 615 C 233.807 620.225, 232.834 628.550, 232.481 633.500 C 232.128 638.450, 232.356 648.125, 232.989 655 C 233.622 661.875, 235.233 672.916, 236.571 679.535 C 237.908 686.155, 239.672 693.580, 240.490 696.035 C 241.803 699.977, 241.915 700.090, 241.449 697 C 241.159 695.075, 240.441 688.550, 239.854 682.500 C 239.262 676.393, 239.078 666.052, 239.442 659.252 C 239.802 652.515, 240.763 642.840, 241.577 637.752 C 242.390 632.663, 244.395 623.456, 246.031 617.291 C 247.666 611.127, 250.829 601.361, 253.058 595.590 C 255.287 589.819, 259.613 580.237, 262.670 574.298 C 265.728 568.359, 271.082 559.225, 274.568 554 C 278.053 548.775, 284.189 540.703, 288.203 536.061 C 292.216 531.420, 298.202 525.345, 301.505 522.561 C 304.807 519.778, 308.632 516.736, 310.005 515.802 C 311.377 514.869, 312.275 514.081, 312 514.053 C 311.725 514.024, 307.855 516.059, 303.400 518.575 M 242 702 C 242 702.733, 242.300 703.033, 242.667 702.667 C 243.033 702.300, 243.033 701.700, 242.667 701.333 C 242.300 700.967, 242 701.267, 242 702" stroke="none" fill="#069627" fill-rule="evenodd"/><path d="M -0 400.001 L -0 800.002 400.250 799.751 L 800.500 799.500 800.751 399.750 L 801.002 0 400.501 0 L 0 0 -0 400.001 M 0.495 400.500 C 0.495 620.500, 0.610 710.351, 0.750 600.169 C 0.890 489.986, 0.890 309.986, 0.750 200.169 C 0.610 90.351, 0.495 180.500, 0.495 400.500 M 480.500 49.971 C 476.650 50.404, 469.675 51.531, 465 52.473 C 460.325 53.416, 450.560 56.161, 443.301 58.573 C 436.041 60.985, 425.527 64.971, 419.937 67.432 L 409.774 71.905 399.652 66.825 C 394.085 64.032, 384.297 60.028, 377.902 57.927 C 371.506 55.827, 361.150 53.353, 354.887 52.430 C 346.649 51.214, 340.182 50.910, 331.500 51.330 C 324.607 51.664, 316.211 52.765, 311.771 53.918 C 307.521 55.023, 301.671 56.915, 298.771 58.124 C 295.872 59.332, 290.015 62.359, 285.755 64.849 C 281.495 67.338, 274.773 72.329, 270.817 75.938 C 266.861 79.547, 260.993 86.048, 257.776 90.385 C 254.559 94.722, 250.157 101.980, 247.993 106.514 C 245.830 111.047, 242.973 118.086, 241.644 122.155 C 240.316 126.224, 238.503 133.783, 237.615 138.953 C 236.630 144.686, 236 154.065, 236 163 C 236 171.909, 236.632 181.341, 237.612 187.074 C 238.499 192.258, 240.318 200.325, 241.654 205 C 242.990 209.675, 246.270 218, 248.943 223.500 C 251.616 229, 256.771 237.477, 260.399 242.337 C 264.027 247.198, 270.259 254.798, 274.248 259.226 C 278.236 263.654, 293.650 278.551, 308.500 292.330 C 323.350 306.109, 341.046 323.034, 347.824 329.941 C 354.602 336.849, 364.063 347, 368.848 352.500 C 373.633 358, 379.516 364.892, 381.922 367.816 C 385.896 372.646, 386.153 373.275, 384.727 374.701 C 383.302 376.127, 381.073 374.145, 360.369 353.042 C 347.834 340.266, 331.261 324.094, 323.540 317.104 C 315.818 310.114, 305.675 301.221, 301 297.341 C 296.325 293.462, 287.914 286.892, 282.309 282.741 C 276.705 278.591, 268.103 272.710, 263.194 269.674 C 258.286 266.638, 249.596 261.808, 243.885 258.942 C 238.173 256.075, 229.548 252.204, 224.717 250.338 C 219.887 248.472, 211.337 245.854, 205.717 244.520 C 200.098 243.186, 191.130 241.624, 185.789 241.047 C 180.449 240.471, 172.539 240, 168.213 240 C 163.887 240, 155.432 240.480, 149.424 241.066 C 143.416 241.653, 134.225 242.990, 129 244.037 C 123.775 245.085, 115.225 247.355, 110 249.081 C 104.775 250.807, 96.537 254.177, 91.694 256.570 C 86.851 258.963, 79.664 263.064, 75.722 265.685 C 71.781 268.305, 64.931 274.060, 60.499 278.474 C 56.068 282.888, 50.748 289.081, 48.678 292.235 C 46.607 295.389, 43.631 300.564, 42.064 303.735 C 40.497 306.906, 38.264 312.592, 37.103 316.371 C 35.941 320.150, 34.492 327.463, 33.884 332.621 C 33.068 339.540, 33.076 344.558, 33.914 351.750 C 34.540 357.113, 36.200 365.743, 37.605 370.928 C 39.010 376.113, 42.091 384.745, 44.453 390.111 C 46.814 395.476, 50.153 402.153, 51.873 404.948 C 53.593 407.743, 55 410.374, 55 410.795 C 55 411.216, 53.444 415.251, 51.542 419.760 C 49.640 424.270, 46.493 432.984, 44.548 439.125 C 42.604 445.266, 39.833 455.737, 38.391 462.395 C 36.206 472.483, 35.765 477.082, 35.745 490 C 35.724 502.731, 36.102 506.929, 37.859 513.500 C 39.036 517.900, 41.585 524.734, 43.523 528.687 C 45.461 532.641, 49.045 538.328, 51.487 541.325 C 53.929 544.323, 58.756 548.920, 62.214 551.540 C 65.671 554.160, 72.100 557.990, 76.500 560.052 C 80.900 562.113, 88.325 564.735, 93 565.878 C 97.675 567.022, 106.410 568.412, 112.411 568.968 C 119.753 569.649, 127.114 569.650, 134.911 568.972 C 141.285 568.418, 149.990 567.307, 154.255 566.502 C 158.520 565.698, 165.495 564.145, 169.755 563.052 C 174.015 561.959, 181.325 559.754, 186 558.152 C 190.675 556.551, 199.225 553.354, 205 551.049 C 210.775 548.743, 223.600 542.871, 233.500 538.001 C 243.400 533.130, 257.800 525.449, 265.500 520.931 C 273.200 516.414, 285.575 508.659, 293 503.698 C 300.425 498.737, 310.550 491.641, 315.500 487.929 C 320.450 484.217, 329 477.442, 334.500 472.874 C 340 468.306, 350.383 458.928, 357.573 452.034 L 370.647 439.500 357.073 453.031 C 349.608 460.473, 332.250 476.200, 318.500 487.980 C 304.750 499.760, 287.489 515.271, 280.143 522.449 C 272.797 529.627, 263.885 539.100, 260.339 543.500 C 256.793 547.900, 251.803 554.650, 249.250 558.500 C 246.696 562.350, 242.684 569.338, 240.334 574.029 C 237.984 578.720, 234.481 587.382, 232.550 593.278 C 230.619 599.174, 228.137 608.422, 227.035 613.830 C 225.933 619.237, 224.560 629.082, 223.985 635.707 C 223.261 644.048, 223.258 651.131, 223.975 658.738 C 224.545 664.781, 225.919 673.274, 227.028 677.612 C 228.138 681.951, 231.110 689.745, 233.634 694.933 C 237.403 702.680, 239.678 705.821, 246.373 712.516 C 252.768 718.911, 256.354 721.567, 263.012 724.840 C 267.681 727.134, 274.901 729.869, 279.058 730.916 C 283.214 731.963, 290.653 733.136, 295.589 733.522 C 300.815 733.931, 309.143 733.739, 315.531 733.063 C 321.564 732.425, 331.598 730.769, 337.828 729.384 C 344.059 727.998, 354.859 724.928, 361.828 722.561 C 368.798 720.194, 375.700 717.695, 377.167 717.006 C 379.576 715.876, 380.400 716.095, 385.667 719.268 C 388.875 721.201, 395.550 724.793, 400.500 727.249 C 405.450 729.706, 413.100 732.894, 417.500 734.334 C 421.900 735.773, 428.425 737.645, 432 738.492 C 435.575 739.340, 443.675 740.299, 450 740.623 C 459.276 741.099, 463.339 740.831, 471.010 739.235 C 476.241 738.148, 483.990 735.813, 488.230 734.048 C 492.471 732.283, 498.541 729.156, 501.720 727.100 C 504.899 725.045, 510.322 720.749, 513.772 717.553 C 517.221 714.358, 522.750 708.153, 526.057 703.764 C 529.364 699.375, 534.284 691.220, 536.989 685.642 C 539.695 680.064, 543.097 671.916, 544.551 667.536 C 546.004 663.155, 548.085 655.280, 549.174 650.036 C 550.626 643.042, 551.279 635.034, 551.625 620 C 551.956 605.613, 551.693 596.891, 550.746 590.750 C 550.003 585.938, 549.531 582, 549.696 582 C 549.862 582, 555.767 587.063, 562.819 593.250 C 569.871 599.438, 581.459 609.275, 588.571 615.111 C 595.682 620.947, 607.810 630.636, 615.523 636.641 C 623.236 642.647, 635.386 651.800, 642.523 656.981 C 649.660 662.162, 662.475 671.080, 671 676.799 C 679.525 682.517, 693.590 691.432, 702.257 696.609 C 710.923 701.786, 724.648 709.616, 732.757 714.008 C 740.865 718.401, 748.092 721.996, 748.815 721.997 C 749.538 721.999, 751.630 718.737, 753.464 714.750 C 755.297 710.762, 758.221 703.450, 759.962 698.500 C 761.703 693.550, 763.801 686.350, 764.624 682.500 C 765.448 678.650, 766.171 671.675, 766.230 667 C 766.289 662.325, 766.001 657.038, 765.589 655.250 C 764.997 652.677, 764.333 652, 762.404 652 C 761.063 652, 754.686 650.867, 748.233 649.481 C 741.780 648.096, 732 645.579, 726.500 643.888 C 721 642.198, 711.720 638.863, 705.877 636.479 C 700.035 634.094, 689.850 629.434, 683.244 626.122 C 676.638 622.811, 667.243 617.754, 662.367 614.884 C 657.490 612.015, 648.775 606.514, 643 602.661 C 637.225 598.808, 628 592.272, 622.500 588.137 C 617 584.002, 608.225 577.168, 603 572.951 C 597.775 568.733, 587.763 560.239, 580.750 554.076 C 573.737 547.913, 568 542.665, 568 542.415 C 568 542.164, 570.362 543.340, 573.250 545.027 C 576.138 546.713, 581.040 549.405, 584.145 551.008 C 587.250 552.611, 593.775 555.579, 598.645 557.604 C 603.515 559.628, 611.939 562.569, 617.365 564.138 C 622.791 565.708, 632.691 567.951, 639.365 569.122 C 647.744 570.593, 655.834 571.265, 665.500 571.292 C 674.636 571.317, 682.492 570.750, 688.112 569.659 C 692.849 568.740, 699.185 567.141, 702.192 566.106 C 705.200 565.071, 710.549 562.830, 714.080 561.126 C 717.611 559.423, 723.213 555.832, 726.529 553.147 C 729.845 550.463, 734.536 545.648, 736.952 542.447 C 739.368 539.247, 742.590 534.125, 744.112 531.064 C 745.633 528.004, 747.856 522.125, 749.052 518 C 750.691 512.343, 751.350 506.766, 751.733 495.308 C 752.121 483.679, 751.837 477.698, 750.520 469.808 C 749.574 464.139, 747.729 455.225, 746.419 450 C 745.110 444.775, 741.961 434.764, 739.422 427.754 L 734.805 415.008 739.348 407.254 C 741.847 402.989, 745.452 396.071, 747.361 391.881 C 749.269 387.690, 751.941 380.715, 753.299 376.381 C 754.657 372.046, 756.333 365.290, 757.023 361.366 C 757.806 356.922, 758.094 349.569, 757.789 341.866 C 757.380 331.517, 756.809 328.082, 754.288 320.806 C 752.632 316.024, 749.130 308.668, 746.507 304.459 C 743.883 300.250, 738.641 293.710, 734.856 289.925 C 731.072 286.141, 724.718 280.847, 720.738 278.161 C 716.757 275.474, 710.197 271.613, 706.160 269.581 C 702.123 267.548, 694.248 264.361, 688.660 262.499 C 683.072 260.637, 673.842 258.170, 668.148 257.017 C 662.454 255.864, 652.779 254.438, 646.648 253.847 C 640.428 253.248, 628.932 253.044, 620.644 253.385 C 612.473 253.721, 601.074 254.695, 595.313 255.551 C 589.552 256.406, 580.557 258.192, 575.324 259.520 C 570.091 260.847, 560.842 263.951, 554.769 266.418 C 548.697 268.885, 538.727 273.697, 532.614 277.113 C 526.501 280.528, 516.998 286.335, 511.496 290.018 C 505.995 293.701, 496.995 300.218, 491.496 304.500 C 485.998 308.782, 477 316.155, 471.500 320.884 C 466 325.612, 453.400 337.354, 443.500 346.976 C 433.600 356.599, 426.645 363.128, 428.045 361.486 C 429.445 359.844, 434.159 354.450, 438.521 349.500 C 442.883 344.550, 461.560 325.200, 480.026 306.500 C 498.491 287.800, 518.013 267.325, 523.409 261 C 528.805 254.675, 536.520 244.550, 540.554 238.500 C 544.587 232.450, 549.949 223.352, 552.468 218.282 C 554.987 213.212, 558.813 203.762, 560.970 197.282 C 563.127 190.802, 565.796 181, 566.900 175.500 C 568.004 170, 569.403 159.683, 570.007 152.574 C 570.612 145.465, 570.826 136.015, 570.484 131.574 C 570.141 127.133, 569.217 119.868, 568.432 115.429 C 567.646 110.990, 565.908 104.140, 564.570 100.206 C 563.232 96.273, 560.432 89.780, 558.347 85.777 C 555.686 80.668, 552.016 75.957, 546.028 69.964 C 539.552 63.483, 535.681 60.537, 529.942 57.723 C 525.785 55.684, 519.035 53.165, 514.942 52.124 C 510.849 51.083, 503 49.995, 497.500 49.707 C 492 49.418, 484.350 49.537, 480.500 49.971 M 326.500 62.092 C 322.100 63.163, 315.575 64.990, 312 66.153 C 308.425 67.316, 301.900 70.048, 297.500 72.224 C 293.100 74.401, 286.789 78.116, 283.475 80.481 C 280.161 82.846, 274.464 87.945, 270.815 91.813 C 267.166 95.681, 262.341 101.944, 260.091 105.730 C 257.841 109.517, 254.682 116.230, 253.069 120.648 C 251.457 125.066, 249.465 132.240, 248.642 136.590 C 247.820 140.941, 246.835 148.787, 246.453 154.026 C 246.048 159.579, 246.255 168.754, 246.948 176.026 C 247.602 182.887, 249.192 193.450, 250.482 199.500 C 251.771 205.550, 253.982 213.875, 255.394 218 C 256.976 222.621, 257.794 224.157, 257.523 222 C 257.282 220.075, 256.540 207.925, 255.874 195 C 254.963 177.313, 254.941 168.618, 255.785 159.850 C 256.402 153.443, 257.862 144.443, 259.031 139.850 C 260.199 135.258, 262.863 127.847, 264.951 123.381 C 267.039 118.916, 270.602 112.532, 272.868 109.194 C 275.135 105.856, 279.530 100.381, 282.635 97.027 C 285.740 93.673, 292.380 87.874, 297.391 84.139 C 302.401 80.405, 309.200 75.734, 312.500 73.760 C 315.800 71.786, 323.185 67.883, 328.911 65.086 C 334.945 62.138, 338.309 60.030, 336.911 60.072 C 335.585 60.112, 330.900 61.021, 326.500 62.092 M 155.333 248.667 C 155.700 249.033, 156.300 249.033, 156.667 248.667 C 157.033 248.300, 156.733 248, 156 248 C 155.267 248, 154.967 248.300, 155.333 248.667 M 145 249.727 C 143.075 249.950, 136.346 251.240, 130.048 252.593 C 123.749 253.946, 113.871 256.634, 108.096 258.566 C 102.322 260.498, 93.183 264.388, 87.788 267.209 C 82.392 270.031, 75.084 274.727, 71.547 277.644 C 68.010 280.561, 62.765 285.773, 59.892 289.224 C 57.019 292.676, 52.955 299.100, 50.860 303.500 C 48.766 307.900, 46.321 314.200, 45.427 317.500 C 44.529 320.817, 43.575 329.314, 43.292 336.500 C 42.917 346.043, 43.220 352.026, 44.431 359 C 45.338 364.225, 47.829 373.735, 49.967 380.133 C 52.104 386.531, 55.266 394.564, 56.992 397.984 C 58.718 401.404, 60.319 404.015, 60.548 403.785 C 60.778 403.555, 60.520 401.822, 59.976 399.934 C 59.431 398.045, 58.222 392.450, 57.289 387.500 C 56.089 381.133, 55.585 373.088, 55.565 360 C 55.541 343.806, 55.828 340.378, 57.869 332.500 C 59.151 327.550, 61.898 319.847, 63.974 315.381 C 66.049 310.916, 69.641 304.474, 71.956 301.065 C 74.270 297.657, 79.451 291.581, 83.468 287.564 C 87.486 283.547, 95.231 277.292, 100.680 273.664 C 106.128 270.037, 115.067 264.940, 120.543 262.339 C 126.019 259.737, 135.900 255.696, 142.500 253.358 C 149.335 250.937, 153.209 249.153, 151.500 249.213 C 149.850 249.272, 146.925 249.503, 145 249.727 M 608 261.648 C 602.775 262.476, 592.636 264.655, 585.468 266.492 C 578.301 268.328, 566.601 271.939, 559.468 274.516 C 552.336 277.094, 541.100 281.821, 534.500 285.021 C 527.900 288.222, 517.960 293.546, 512.411 296.853 C 506.862 300.161, 497.637 306.345, 491.911 310.597 C 486.185 314.848, 475.650 324.148, 468.500 331.264 C 461.350 338.380, 456.055 343.909, 456.733 343.552 C 457.411 343.195, 462.981 339.331, 469.109 334.966 C 475.238 330.601, 486.300 323.397, 493.693 318.957 C 501.085 314.517, 513.291 307.808, 520.817 304.047 C 528.343 300.286, 539 295.303, 544.500 292.974 C 550 290.644, 558.759 287.195, 563.964 285.310 C 569.169 283.424, 580.194 279.922, 588.464 277.528 C 596.734 275.134, 609.575 271.952, 617 270.456 C 624.425 268.961, 635.675 266.984, 642 266.064 L 653.500 264.391 650 262.462 C 647.054 260.838, 644.205 260.502, 632 260.338 C 623.007 260.218, 613.892 260.715, 608 261.648 M 388.961 414.564 C 387.629 416.719, 384.329 421.411, 381.628 424.991 C 378.927 428.571, 375.543 432.879, 374.109 434.564 C 372.674 436.249, 373.673 435.349, 376.328 432.564 C 378.984 429.779, 383.630 424.226, 386.653 420.225 C 389.676 416.224, 391.977 412.431, 391.766 411.798 C 391.555 411.164, 390.292 412.409, 388.961 414.564 M 303.400 518.575 C 298.944 521.091, 291.486 526.012, 286.825 529.510 C 282.164 533.008, 274.559 539.860, 269.925 544.736 C 265.291 549.612, 259.188 556.954, 256.363 561.051 C 253.537 565.148, 249.379 572.162, 247.123 576.637 C 244.867 581.112, 241.477 589.436, 239.590 595.136 C 237.703 600.836, 235.477 609.775, 234.642 615 C 233.807 620.225, 232.834 628.550, 232.481 633.500 C 232.128 638.450, 232.356 648.125, 232.989 655 C 233.622 661.875, 235.233 672.916, 236.571 679.535 C 237.908 686.155, 239.672 693.580, 240.490 696.035 C 241.803 699.977, 241.915 700.090, 241.449 697 C 241.159 695.075, 240.441 688.550, 239.854 682.500 C 239.262 676.393, 239.078 666.052, 239.442 659.252 C 239.802 652.515, 240.763 642.840, 241.577 637.752 C 242.390 632.663, 244.395 623.456, 246.031 617.291 C 247.666 611.127, 250.829 601.361, 253.058 595.590 C 255.287 589.819, 259.613 580.237, 262.670 574.298 C 265.728 568.359, 271.082 559.225, 274.568 554 C 278.053 548.775, 284.189 540.703, 288.203 536.061 C 292.216 531.420, 298.202 525.345, 301.505 522.561 C 304.807 519.778, 308.632 516.736, 310.005 515.802 C 311.377 514.869, 312.275 514.081, 312 514.053 C 311.725 514.024, 307.855 516.059, 303.400 518.575 M 242 702 C 242 702.733, 242.300 703.033, 242.667 702.667 C 243.033 702.300, 243.033 701.700, 242.667 701.333 C 242.300 700.967, 242 701.267, 242 702" stroke="none" fill="#f2f3f2" fill-rule="evenodd"/></svg>